<svg width="225" height="60" viewBox="0 0 225 60" fill="none" xmlns="http://www.w3.org/2000/svg">
<path d="M69.112 19.088C69.112 19.472 69.088 19.872 69.04 20.288H59.752C59.816 21.12 60.08 21.76 60.544 22.208C61.024 22.64 61.608 22.856 62.296 22.856C63.32 22.856 64.032 22.424 64.432 21.56H68.8C68.576 22.44 68.168 23.232 67.576 23.936C67 24.64 66.272 25.192 65.392 25.592C64.512 25.992 63.528 26.192 62.44 26.192C61.128 26.192 59.96 25.912 58.936 25.352C57.912 24.792 57.112 23.992 56.536 22.952C55.96 21.912 55.672 20.696 55.672 19.304C55.672 17.912 55.952 16.696 56.512 15.656C57.088 14.616 57.888 13.816 58.912 13.256C59.936 12.696 61.112 12.416 62.44 12.416C63.736 12.416 64.888 12.688 65.896 13.232C66.904 13.776 67.688 14.552 68.248 15.56C68.824 16.568 69.112 17.744 69.112 19.088ZM64.912 18.008C64.912 17.304 64.672 16.744 64.192 16.328C63.712 15.912 63.112 15.704 62.392 15.704C61.704 15.704 61.12 15.904 60.64 16.304C60.176 16.704 59.888 17.272 59.776 18.008H64.912ZM76.7251 26.192C75.5571 26.192 74.5171 25.992 73.6051 25.592C72.6931 25.192 71.9731 24.648 71.4451 23.96C70.9171 23.256 70.6211 22.472 70.5571 21.608H74.6131C74.6611 22.072 74.8771 22.448 75.2611 22.736C75.6451 23.024 76.1171 23.168 76.6771 23.168C77.1891 23.168 77.5811 23.072 77.8531 22.88C78.1411 22.672 78.2851 22.408 78.2851 22.088C78.2851 21.704 78.0851 21.424 77.6851 21.248C77.2851 21.056 76.6371 20.848 75.7411 20.624C74.7811 20.4 73.9811 20.168 73.3411 19.928C72.7011 19.672 72.1491 19.28 71.6851 18.752C71.2211 18.208 70.9891 17.48 70.9891 16.568C70.9891 15.8 71.1971 15.104 71.6131 14.48C72.0451 13.84 72.6691 13.336 73.4851 12.968C74.3171 12.6 75.3011 12.416 76.4371 12.416C78.1171 12.416 79.4371 12.832 80.3971 13.664C81.3731 14.496 81.9331 15.6 82.0771 16.976H78.2851C78.2211 16.512 78.0131 16.144 77.6611 15.872C77.3251 15.6 76.8771 15.464 76.3171 15.464C75.8371 15.464 75.4691 15.56 75.2131 15.752C74.9571 15.928 74.8291 16.176 74.8291 16.496C74.8291 16.88 75.0291 17.168 75.4291 17.36C75.8451 17.552 76.4851 17.744 77.3491 17.936C78.3411 18.192 79.1491 18.448 79.7731 18.704C80.3971 18.944 80.9411 19.344 81.4051 19.904C81.8851 20.448 82.1331 21.184 82.1491 22.112C82.1491 22.896 81.9251 23.6 81.4771 24.224C81.0451 24.832 80.4131 25.312 79.5811 25.664C78.7651 26.016 77.8131 26.192 76.7251 26.192ZM92.1239 22.52V26H90.0359C88.5479 26 87.3879 25.64 86.5559 24.92C85.7239 24.184 85.3079 22.992 85.3079 21.344V16.016H83.6759V12.608H85.3079V9.344H89.4119V12.608H92.0999V16.016H89.4119V21.392C89.4119 21.792 89.5079 22.08 89.6999 22.256C89.8919 22.432 90.2119 22.52 90.6599 22.52H92.1239ZM107.034 19.088C107.034 19.472 107.01 19.872 106.962 20.288H97.6739C97.7379 21.12 98.0019 21.76 98.4659 22.208C98.9459 22.64 99.5299 22.856 100.218 22.856C101.242 22.856 101.954 22.424 102.354 21.56H106.722C106.498 22.44 106.09 23.232 105.498 23.936C104.922 24.64 104.194 25.192 103.314 25.592C102.434 25.992 101.45 26.192 100.362 26.192C99.0499 26.192 97.8819 25.912 96.8579 25.352C95.8339 24.792 95.0339 23.992 94.4579 22.952C93.8819 21.912 93.5939 20.696 93.5939 19.304C93.5939 17.912 93.8739 16.696 94.4339 15.656C95.0099 14.616 95.8099 13.816 96.8339 13.256C97.8579 12.696 99.0339 12.416 100.362 12.416C101.658 12.416 102.81 12.688 103.818 13.232C104.826 13.776 105.61 14.552 106.17 15.56C106.746 16.568 107.034 17.744 107.034 19.088ZM102.834 18.008C102.834 17.304 102.594 16.744 102.114 16.328C101.634 15.912 101.034 15.704 100.314 15.704C99.6259 15.704 99.0419 15.904 98.5619 16.304C98.0979 16.704 97.8099 17.272 97.6979 18.008H102.834ZM121.823 19.088C121.823 19.472 121.799 19.872 121.751 20.288H112.463C112.527 21.12 112.791 21.76 113.255 22.208C113.735 22.64 114.319 22.856 115.007 22.856C116.031 22.856 116.743 22.424 117.143 21.56H121.511C121.287 22.44 120.879 23.232 120.287 23.936C119.711 24.64 118.983 25.192 118.103 25.592C117.223 25.992 116.239 26.192 115.151 26.192C113.839 26.192 112.671 25.912 111.647 25.352C110.623 24.792 109.823 23.992 109.247 22.952C108.671 21.912 108.383 20.696 108.383 19.304C108.383 17.912 108.663 16.696 109.223 15.656C109.799 14.616 110.599 13.816 111.623 13.256C112.647 12.696 113.823 12.416 115.151 12.416C116.447 12.416 117.599 12.688 118.607 13.232C119.615 13.776 120.399 14.552 120.959 15.56C121.535 16.568 121.823 17.744 121.823 19.088ZM117.623 18.008C117.623 17.304 117.383 16.744 116.903 16.328C116.423 15.912 115.823 15.704 115.103 15.704C114.415 15.704 113.831 15.904 113.351 16.304C112.887 16.704 112.599 17.272 112.487 18.008H117.623ZM141.076 12.464C142.74 12.464 144.06 12.968 145.036 13.976C146.028 14.984 146.524 16.384 146.524 18.176V26H142.444V18.728C142.444 17.864 142.212 17.2 141.748 16.736C141.3 16.256 140.676 16.016 139.876 16.016C139.076 16.016 138.444 16.256 137.98 16.736C137.532 17.2 137.308 17.864 137.308 18.728V26H133.228V18.728C133.228 17.864 132.996 17.2 132.532 16.736C132.084 16.256 131.46 16.016 130.66 16.016C129.86 16.016 129.228 16.256 128.764 16.736C128.316 17.2 128.092 17.864 128.092 18.728V26H123.988V12.608H128.092V14.288C128.508 13.728 129.052 13.288 129.724 12.968C130.396 12.632 131.156 12.464 132.004 12.464C133.012 12.464 133.908 12.68 134.692 13.112C135.492 13.544 136.116 14.16 136.564 14.96C137.028 14.224 137.66 13.624 138.46 13.16C139.26 12.696 140.132 12.464 141.076 12.464ZM162.018 19.088C162.018 19.472 161.994 19.872 161.946 20.288H152.658C152.722 21.12 152.986 21.76 153.45 22.208C153.93 22.64 154.514 22.856 155.202 22.856C156.226 22.856 156.938 22.424 157.338 21.56H161.706C161.482 22.44 161.074 23.232 160.482 23.936C159.906 24.64 159.178 25.192 158.298 25.592C157.418 25.992 156.434 26.192 155.346 26.192C154.034 26.192 152.866 25.912 151.842 25.352C150.818 24.792 150.018 23.992 149.442 22.952C148.866 21.912 148.578 20.696 148.578 19.304C148.578 17.912 148.858 16.696 149.418 15.656C149.994 14.616 150.794 13.816 151.818 13.256C152.842 12.696 154.018 12.416 155.346 12.416C156.642 12.416 157.794 12.688 158.802 13.232C159.81 13.776 160.594 14.552 161.154 15.56C161.73 16.568 162.018 17.744 162.018 19.088ZM157.818 18.008C157.818 17.304 157.578 16.744 157.098 16.328C156.618 15.912 156.018 15.704 155.298 15.704C154.61 15.704 154.026 15.904 153.546 16.304C153.082 16.704 152.794 17.272 152.682 18.008H157.818ZM163.367 19.28C163.367 17.904 163.623 16.696 164.135 15.656C164.663 14.616 165.375 13.816 166.271 13.256C167.167 12.696 168.167 12.416 169.271 12.416C170.151 12.416 170.951 12.6 171.671 12.968C172.407 13.336 172.983 13.832 173.399 14.456V8.24H177.503V26H173.399V24.08C173.015 24.72 172.463 25.232 171.743 25.616C171.039 26 170.215 26.192 169.271 26.192C168.167 26.192 167.167 25.912 166.271 25.352C165.375 24.776 164.663 23.968 164.135 22.928C163.623 21.872 163.367 20.656 163.367 19.28ZM173.399 19.304C173.399 18.28 173.111 17.472 172.535 16.88C171.975 16.288 171.287 15.992 170.471 15.992C169.655 15.992 168.959 16.288 168.383 16.88C167.823 17.456 167.543 18.256 167.543 19.28C167.543 20.304 167.823 21.12 168.383 21.728C168.959 22.32 169.655 22.616 170.471 22.616C171.287 22.616 171.975 22.32 172.535 21.728C173.111 21.136 173.399 20.328 173.399 19.304Z" fill="#231F20"/>
<path d="M18 14L23.5552 25.8477L36 27.757L27 36.9773L29.1259 50L18 43.8477L6.87414 50L9 36.9773L0 27.757L12.4293 25.8477L18 14Z" fill="#FFCD34"/>
<path d="M56.152 46.424C56.152 45.08 56.424 43.904 56.968 42.896C57.512 41.872 58.256 41.088 59.2 40.544C60.16 39.984 61.24 39.704 62.44 39.704C63.592 39.704 64.632 39.984 65.56 40.544C66.488 41.104 67.168 41.832 67.6 42.728V35.24H69.28V53H67.6V50.072C67.2 50.984 66.544 51.736 65.632 52.328C64.72 52.904 63.648 53.192 62.416 53.192C61.216 53.192 60.136 52.912 59.176 52.352C58.232 51.792 57.488 51 56.944 49.976C56.416 48.952 56.152 47.768 56.152 46.424ZM67.6 46.448C67.6 45.392 67.384 44.464 66.952 43.664C66.52 42.864 65.928 42.248 65.176 41.816C64.44 41.384 63.624 41.168 62.728 41.168C61.8 41.168 60.968 41.376 60.232 41.792C59.496 42.208 58.912 42.816 58.48 43.616C58.064 44.4 57.856 45.336 57.856 46.424C57.856 47.496 58.064 48.44 58.48 49.256C58.912 50.056 59.496 50.672 60.232 51.104C60.968 51.52 61.8 51.728 62.728 51.728C63.624 51.728 64.44 51.512 65.176 51.08C65.928 50.648 66.52 50.032 66.952 49.232C67.384 48.432 67.6 47.504 67.6 46.448ZM73.9553 37.424C73.6193 37.424 73.3313 37.304 73.0913 37.064C72.8513 36.824 72.7313 36.528 72.7313 36.176C72.7313 35.824 72.8513 35.536 73.0913 35.312C73.3313 35.072 73.6193 34.952 73.9553 34.952C74.2913 34.952 74.5793 35.072 74.8193 35.312C75.0593 35.536 75.1793 35.824 75.1793 36.176C75.1793 36.528 75.0593 36.824 74.8193 37.064C74.5793 37.304 74.2913 37.424 73.9553 37.424ZM74.7953 39.896V53H73.1153V39.896H74.7953ZM84.0957 39.704C85.3277 39.704 86.3997 39.992 87.3117 40.568C88.2237 41.144 88.8797 41.872 89.2797 42.752V39.896H90.9597V53.336C90.9597 54.536 90.6957 55.6 90.1677 56.528C89.6557 57.456 88.9357 58.168 88.0077 58.664C87.0797 59.176 86.0237 59.432 84.8397 59.432C83.1597 59.432 81.7597 59.032 80.6397 58.232C79.5357 57.432 78.8477 56.344 78.5757 54.968H80.2317C80.5197 55.88 81.0637 56.608 81.8637 57.152C82.6797 57.696 83.6717 57.968 84.8397 57.968C85.6877 57.968 86.4477 57.784 87.1197 57.416C87.7917 57.064 88.3197 56.536 88.7037 55.832C89.0877 55.128 89.2797 54.296 89.2797 53.336V50.096C88.8637 50.992 88.1997 51.736 87.2877 52.328C86.3917 52.904 85.3277 53.192 84.0957 53.192C82.8957 53.192 81.8157 52.912 80.8557 52.352C79.9117 51.792 79.1677 51 78.6237 49.976C78.0957 48.952 77.8317 47.768 77.8317 46.424C77.8317 45.08 78.0957 43.904 78.6237 42.896C79.1677 41.872 79.9117 41.088 80.8557 40.544C81.8157 39.984 82.8957 39.704 84.0957 39.704ZM89.2797 46.448C89.2797 45.392 89.0637 44.464 88.6317 43.664C88.1997 42.864 87.6077 42.248 86.8557 41.816C86.1197 41.384 85.3037 41.168 84.4077 41.168C83.4797 41.168 82.6477 41.376 81.9117 41.792C81.1757 42.208 80.5917 42.816 80.1597 43.616C79.7437 44.4 79.5357 45.336 79.5357 46.424C79.5357 47.496 79.7437 48.44 80.1597 49.256C80.5917 50.056 81.1757 50.672 81.9117 51.104C82.6477 51.52 83.4797 51.728 84.4077 51.728C85.3037 51.728 86.1197 51.512 86.8557 51.08C87.6077 50.648 88.1997 50.032 88.6317 49.232C89.0637 48.432 89.2797 47.504 89.2797 46.448ZM95.635 37.424C95.299 37.424 95.011 37.304 94.771 37.064C94.531 36.824 94.411 36.528 94.411 36.176C94.411 35.824 94.531 35.536 94.771 35.312C95.011 35.072 95.299 34.952 95.635 34.952C95.971 34.952 96.259 35.072 96.499 35.312C96.739 35.536 96.859 35.824 96.859 36.176C96.859 36.528 96.739 36.824 96.499 37.064C96.259 37.304 95.971 37.424 95.635 37.424ZM96.475 39.896V53H94.795V39.896H96.475ZM102.463 41.312V49.448C102.463 50.248 102.615 50.8 102.919 51.104C103.223 51.408 103.759 51.56 104.527 51.56H106.063V53H104.263C103.079 53 102.199 52.728 101.623 52.184C101.047 51.624 100.759 50.712 100.759 49.448V41.312H98.9354V39.896H100.759V36.608H102.463V39.896H106.063V41.312H102.463ZM108.066 46.424C108.066 45.08 108.33 43.904 108.858 42.896C109.402 41.872 110.146 41.088 111.09 40.544C112.05 39.984 113.13 39.704 114.33 39.704C115.578 39.704 116.65 39.992 117.546 40.568C118.458 41.144 119.114 41.88 119.514 42.776V39.896H121.194V53H119.514V50.096C119.098 50.992 118.434 51.736 117.522 52.328C116.626 52.904 115.554 53.192 114.306 53.192C113.122 53.192 112.05 52.912 111.09 52.352C110.146 51.792 109.402 51 108.858 49.976C108.33 48.952 108.066 47.768 108.066 46.424ZM119.514 46.448C119.514 45.392 119.298 44.464 118.866 43.664C118.434 42.864 117.842 42.248 117.09 41.816C116.354 41.384 115.538 41.168 114.642 41.168C113.714 41.168 112.882 41.376 112.146 41.792C111.41 42.208 110.826 42.816 110.394 43.616C109.978 44.4 109.77 45.336 109.77 46.424C109.77 47.496 109.978 48.44 110.394 49.256C110.826 50.056 111.41 50.672 112.146 51.104C112.882 51.52 113.714 51.728 114.642 51.728C115.538 51.728 116.354 51.512 117.09 51.08C117.842 50.648 118.434 50.032 118.866 49.232C119.298 48.432 119.514 47.504 119.514 46.448ZM126.709 35.24V53H125.029V35.24H126.709Z" fill="#6D6D6D"/>
<line x1="44.5" y1="8" x2="44.5" y2="60" stroke="#C4C4C4"/>
</svg>
