<svg width="225" height="65" viewBox="0 0 225 65" fill="none" xmlns="http://www.w3.org/2000/svg">
<path d="M71.464 22.936C71.464 23.384 71.436 23.8507 71.38 24.336H60.544C60.6187 25.3067 60.9267 26.0533 61.468 26.576C62.028 27.08 62.7093 27.332 63.512 27.332C64.7067 27.332 65.5373 26.828 66.004 25.82H71.1C70.8387 26.8467 70.3627 27.7707 69.672 28.592C69 29.4133 68.1507 30.0573 67.124 30.524C66.0973 30.9907 64.9493 31.224 63.68 31.224C62.1493 31.224 60.7867 30.8973 59.592 30.244C58.3973 29.5907 57.464 28.6573 56.792 27.444C56.12 26.2307 55.784 24.812 55.784 23.188C55.784 21.564 56.1107 20.1453 56.764 18.932C57.436 17.7187 58.3693 16.7853 59.564 16.132C60.7587 15.4787 62.1307 15.152 63.68 15.152C65.192 15.152 66.536 15.4693 67.712 16.104C68.888 16.7387 69.8027 17.644 70.456 18.82C71.128 19.996 71.464 21.368 71.464 22.936ZM66.564 21.676C66.564 20.8547 66.284 20.2013 65.724 19.716C65.164 19.2307 64.464 18.988 63.624 18.988C62.8213 18.988 62.14 19.2213 61.58 19.688C61.0387 20.1547 60.7027 20.8173 60.572 21.676H66.564ZM80.3459 31.224C78.9832 31.224 77.7699 30.9907 76.7059 30.524C75.6419 30.0573 74.8019 29.4227 74.1859 28.62C73.5699 27.7987 73.2246 26.884 73.1499 25.876H77.8819C77.9379 26.4173 78.1899 26.856 78.6379 27.192C79.0859 27.528 79.6366 27.696 80.2899 27.696C80.8872 27.696 81.3446 27.584 81.6619 27.36C81.9979 27.1173 82.1659 26.8093 82.1659 26.436C82.1659 25.988 81.9326 25.6613 81.4659 25.456C80.9992 25.232 80.2432 24.9893 79.1979 24.728C78.0779 24.4667 77.1446 24.196 76.3979 23.916C75.6512 23.6173 75.0072 23.16 74.4659 22.544C73.9246 21.9093 73.6539 21.06 73.6539 19.996C73.6539 19.1 73.8966 18.288 74.3819 17.56C74.8859 16.8133 75.6139 16.2253 76.5659 15.796C77.5366 15.3667 78.6846 15.152 80.0099 15.152C81.9699 15.152 83.5099 15.6373 84.6299 16.608C85.7686 17.5787 86.4219 18.8667 86.5899 20.472H82.1659C82.0912 19.9307 81.8486 19.5013 81.4379 19.184C81.0459 18.8667 80.5232 18.708 79.8699 18.708C79.3099 18.708 78.8806 18.82 78.5819 19.044C78.2832 19.2493 78.1339 19.5387 78.1339 19.912C78.1339 20.36 78.3672 20.696 78.8339 20.92C79.3192 21.144 80.0659 21.368 81.0739 21.592C82.2312 21.8907 83.1739 22.1893 83.9019 22.488C84.6299 22.768 85.2646 23.2347 85.8059 23.888C86.3659 24.5227 86.6552 25.3813 86.6739 26.464C86.6739 27.3787 86.4126 28.2 85.8899 28.928C85.3859 29.6373 84.6486 30.1973 83.6779 30.608C82.7259 31.0187 81.6152 31.224 80.3459 31.224ZM98.3112 26.94V31H95.8752C94.1392 31 92.7859 30.58 91.8152 29.74C90.8445 28.8813 90.3592 27.4907 90.3592 25.568V19.352H88.4552V15.376H90.3592V11.568H95.1472V15.376H98.2832V19.352H95.1472V25.624C95.1472 26.0907 95.2592 26.4267 95.4832 26.632C95.7072 26.8373 96.0805 26.94 96.6032 26.94H98.3112ZM115.706 22.936C115.706 23.384 115.678 23.8507 115.622 24.336H104.786C104.861 25.3067 105.169 26.0533 105.71 26.576C106.27 27.08 106.952 27.332 107.754 27.332C108.949 27.332 109.78 26.828 110.246 25.82H115.342C115.081 26.8467 114.605 27.7707 113.914 28.592C113.242 29.4133 112.393 30.0573 111.366 30.524C110.34 30.9907 109.192 31.224 107.922 31.224C106.392 31.224 105.029 30.8973 103.834 30.244C102.64 29.5907 101.706 28.6573 101.034 27.444C100.362 26.2307 100.026 24.812 100.026 23.188C100.026 21.564 100.353 20.1453 101.006 18.932C101.678 17.7187 102.612 16.7853 103.806 16.132C105.001 15.4787 106.373 15.152 107.922 15.152C109.434 15.152 110.778 15.4693 111.954 16.104C113.13 16.7387 114.045 17.644 114.698 18.82C115.37 19.996 115.706 21.368 115.706 22.936ZM110.806 21.676C110.806 20.8547 110.526 20.2013 109.966 19.716C109.406 19.2307 108.706 18.988 107.866 18.988C107.064 18.988 106.382 19.2213 105.822 19.688C105.281 20.1547 104.945 20.8173 104.814 21.676H110.806ZM132.96 22.936C132.96 23.384 132.932 23.8507 132.876 24.336H122.04C122.115 25.3067 122.423 26.0533 122.964 26.576C123.524 27.08 124.205 27.332 125.008 27.332C126.203 27.332 127.033 26.828 127.5 25.82H132.596C132.335 26.8467 131.859 27.7707 131.168 28.592C130.496 29.4133 129.647 30.0573 128.62 30.524C127.593 30.9907 126.445 31.224 125.176 31.224C123.645 31.224 122.283 30.8973 121.088 30.244C119.893 29.5907 118.96 28.6573 118.288 27.444C117.616 26.2307 117.28 24.812 117.28 23.188C117.28 21.564 117.607 20.1453 118.26 18.932C118.932 17.7187 119.865 16.7853 121.06 16.132C122.255 15.4787 123.627 15.152 125.176 15.152C126.688 15.152 128.032 15.4693 129.208 16.104C130.384 16.7387 131.299 17.644 131.952 18.82C132.624 19.996 132.96 21.368 132.96 22.936ZM128.06 21.676C128.06 20.8547 127.78 20.2013 127.22 19.716C126.66 19.2307 125.96 18.988 125.12 18.988C124.317 18.988 123.636 19.2213 123.076 19.688C122.535 20.1547 122.199 20.8173 122.068 21.676H128.06ZM155.422 15.208C157.363 15.208 158.903 15.796 160.042 16.972C161.199 18.148 161.778 19.7813 161.778 21.872V31H157.018V22.516C157.018 21.508 156.747 20.7333 156.206 20.192C155.683 19.632 154.955 19.352 154.022 19.352C153.089 19.352 152.351 19.632 151.81 20.192C151.287 20.7333 151.026 21.508 151.026 22.516V31H146.266V22.516C146.266 21.508 145.995 20.7333 145.454 20.192C144.931 19.632 144.203 19.352 143.27 19.352C142.337 19.352 141.599 19.632 141.058 20.192C140.535 20.7333 140.274 21.508 140.274 22.516V31H135.486V15.376H140.274V17.336C140.759 16.6827 141.394 16.1693 142.178 15.796C142.962 15.404 143.849 15.208 144.838 15.208C146.014 15.208 147.059 15.46 147.974 15.964C148.907 16.468 149.635 17.1867 150.158 18.12C150.699 17.2613 151.437 16.5613 152.37 16.02C153.303 15.4787 154.321 15.208 155.422 15.208ZM179.855 22.936C179.855 23.384 179.827 23.8507 179.771 24.336H168.935C169.009 25.3067 169.317 26.0533 169.859 26.576C170.419 27.08 171.1 27.332 171.903 27.332C173.097 27.332 173.928 26.828 174.395 25.82H179.491C179.229 26.8467 178.753 27.7707 178.063 28.592C177.391 29.4133 176.541 30.0573 175.515 30.524C174.488 30.9907 173.34 31.224 172.071 31.224C170.54 31.224 169.177 30.8973 167.983 30.244C166.788 29.5907 165.855 28.6573 165.183 27.444C164.511 26.2307 164.175 24.812 164.175 23.188C164.175 21.564 164.501 20.1453 165.155 18.932C165.827 17.7187 166.76 16.7853 167.955 16.132C169.149 15.4787 170.521 15.152 172.071 15.152C173.583 15.152 174.927 15.4693 176.103 16.104C177.279 16.7387 178.193 17.644 178.847 18.82C179.519 19.996 179.855 21.368 179.855 22.936ZM174.955 21.676C174.955 20.8547 174.675 20.2013 174.115 19.716C173.555 19.2307 172.855 18.988 172.015 18.988C171.212 18.988 170.531 19.2213 169.971 19.688C169.429 20.1547 169.093 20.8173 168.963 21.676H174.955ZM181.429 23.16C181.429 21.5547 181.727 20.1453 182.325 18.932C182.941 17.7187 183.771 16.7853 184.817 16.132C185.862 15.4787 187.029 15.152 188.317 15.152C189.343 15.152 190.277 15.3667 191.117 15.796C191.975 16.2253 192.647 16.804 193.133 17.532V10.28H197.921V31H193.133V28.76C192.685 29.5067 192.041 30.104 191.201 30.552C190.379 31 189.418 31.224 188.317 31.224C187.029 31.224 185.862 30.8973 184.817 30.244C183.771 29.572 182.941 28.6293 182.325 27.416C181.727 26.184 181.429 24.7653 181.429 23.16ZM193.133 23.188C193.133 21.9933 192.797 21.0507 192.125 20.36C191.471 19.6693 190.669 19.324 189.717 19.324C188.765 19.324 187.953 19.6693 187.281 20.36C186.627 21.032 186.301 21.9653 186.301 23.16C186.301 24.3547 186.627 25.3067 187.281 26.016C187.953 26.7067 188.765 27.052 189.717 27.052C190.669 27.052 191.471 26.7067 192.125 26.016C192.797 25.3253 193.133 24.3827 193.133 23.188Z" fill="#231F20"/>
<path d="M18 15L23.5552 26.8477L36 28.757L27 37.9773L29.1259 51L18 44.8477L6.87414 51L9 37.9773L0 28.757L12.4293 26.8477L18 15Z" fill="#FFCD34"/>
<path d="M56.248 50.876C56.248 49.42 56.5427 48.146 57.132 47.054C57.7213 45.9447 58.5273 45.0953 59.55 44.506C60.59 43.8993 61.76 43.596 63.06 43.596C64.308 43.596 65.4347 43.8993 66.44 44.506C67.4453 45.1127 68.182 45.9013 68.65 46.872V38.76H70.47V58H68.65V54.828C68.2167 55.816 67.506 56.6307 66.518 57.272C65.53 57.896 64.3687 58.208 63.034 58.208C61.734 58.208 60.564 57.9047 59.524 57.298C58.5013 56.6913 57.6953 55.8333 57.106 54.724C56.534 53.6147 56.248 52.332 56.248 50.876ZM68.65 50.902C68.65 49.758 68.416 48.7527 67.948 47.886C67.48 47.0193 66.8387 46.352 66.024 45.884C65.2267 45.416 64.3427 45.182 63.372 45.182C62.3667 45.182 61.4653 45.4073 60.668 45.858C59.8707 46.3087 59.238 46.9673 58.77 47.834C58.3193 48.6833 58.094 49.6973 58.094 50.876C58.094 52.0373 58.3193 53.06 58.77 53.944C59.238 54.8107 59.8707 55.478 60.668 55.946C61.4653 56.3967 62.3667 56.622 63.372 56.622C64.3427 56.622 65.2267 56.388 66.024 55.92C66.8387 55.452 67.48 54.7847 67.948 53.918C68.416 53.0513 68.65 52.046 68.65 50.902ZM75.5349 41.126C75.1709 41.126 74.8589 40.996 74.5989 40.736C74.3389 40.476 74.2089 40.1553 74.2089 39.774C74.2089 39.3927 74.3389 39.0807 74.5989 38.838C74.8589 38.578 75.1709 38.448 75.5349 38.448C75.8989 38.448 76.2109 38.578 76.4709 38.838C76.7309 39.0807 76.8609 39.3927 76.8609 39.774C76.8609 40.1553 76.7309 40.476 76.4709 40.736C76.2109 40.996 75.8989 41.126 75.5349 41.126ZM76.4449 43.804V58H74.6249V43.804H76.4449ZM86.5203 43.596C87.855 43.596 89.0163 43.908 90.0043 44.532C90.9923 45.156 91.703 45.9447 92.1363 46.898V43.804H93.9563V58.364C93.9563 59.664 93.6703 60.8167 93.0983 61.822C92.5437 62.8273 91.7637 63.5987 90.7583 64.136C89.753 64.6907 88.609 64.968 87.3263 64.968C85.5063 64.968 83.9897 64.5347 82.7763 63.668C81.5803 62.8013 80.835 61.6227 80.5403 60.132H82.3343C82.6463 61.12 83.2357 61.9087 84.1023 62.498C84.9863 63.0873 86.061 63.382 87.3263 63.382C88.245 63.382 89.0683 63.1827 89.7963 62.784C90.5243 62.4027 91.0963 61.8307 91.5123 61.068C91.9283 60.3053 92.1363 59.404 92.1363 58.364V54.854C91.6857 55.8247 90.9663 56.6307 89.9783 57.272C89.0077 57.896 87.855 58.208 86.5203 58.208C85.2203 58.208 84.0503 57.9047 83.0103 57.298C81.9877 56.6913 81.1817 55.8333 80.5923 54.724C80.0203 53.6147 79.7343 52.332 79.7343 50.876C79.7343 49.42 80.0203 48.146 80.5923 47.054C81.1817 45.9447 81.9877 45.0953 83.0103 44.506C84.0503 43.8993 85.2203 43.596 86.5203 43.596ZM92.1363 50.902C92.1363 49.758 91.9023 48.7527 91.4343 47.886C90.9663 47.0193 90.325 46.352 89.5103 45.884C88.713 45.416 87.829 45.182 86.8583 45.182C85.853 45.182 84.9517 45.4073 84.1543 45.858C83.357 46.3087 82.7243 46.9673 82.2563 47.834C81.8057 48.6833 81.5803 49.6973 81.5803 50.876C81.5803 52.0373 81.8057 53.06 82.2563 53.944C82.7243 54.8107 83.357 55.478 84.1543 55.946C84.9517 56.3967 85.853 56.622 86.8583 56.622C87.829 56.622 88.713 56.388 89.5103 55.92C90.325 55.452 90.9663 54.7847 91.4343 53.918C91.9023 53.0513 92.1363 52.046 92.1363 50.902ZM99.0213 41.126C98.6573 41.126 98.3453 40.996 98.0853 40.736C97.8253 40.476 97.6953 40.1553 97.6953 39.774C97.6953 39.3927 97.8253 39.0807 98.0853 38.838C98.3453 38.578 98.6573 38.448 99.0213 38.448C99.3853 38.448 99.6973 38.578 99.9573 38.838C100.217 39.0807 100.347 39.3927 100.347 39.774C100.347 40.1553 100.217 40.476 99.9573 40.736C99.6973 40.996 99.3853 41.126 99.0213 41.126ZM99.9313 43.804V58H98.1113V43.804H99.9313ZM106.419 45.338V54.152C106.419 55.0187 106.583 55.6167 106.913 55.946C107.242 56.2753 107.823 56.44 108.655 56.44H110.319V58H108.369C107.086 58 106.133 57.7053 105.509 57.116C104.885 56.5093 104.573 55.5213 104.573 54.152V45.338H102.597V43.804H104.573V40.242H106.419V43.804H110.319V45.338H106.419ZM112.488 50.876C112.488 49.42 112.774 48.146 113.346 47.054C113.936 45.9447 114.742 45.0953 115.764 44.506C116.804 43.8993 117.974 43.596 119.274 43.596C120.626 43.596 121.788 43.908 122.758 44.532C123.746 45.156 124.457 45.9533 124.89 46.924V43.804H126.71V58H124.89V54.854C124.44 55.8247 123.72 56.6307 122.732 57.272C121.762 57.896 120.6 58.208 119.248 58.208C117.966 58.208 116.804 57.9047 115.764 57.298C114.742 56.6913 113.936 55.8333 113.346 54.724C112.774 53.6147 112.488 52.332 112.488 50.876ZM124.89 50.902C124.89 49.758 124.656 48.7527 124.188 47.886C123.72 47.0193 123.079 46.352 122.264 45.884C121.467 45.416 120.583 45.182 119.612 45.182C118.607 45.182 117.706 45.4073 116.908 45.858C116.111 46.3087 115.478 46.9673 115.01 47.834C114.56 48.6833 114.334 49.6973 114.334 50.876C114.334 52.0373 114.56 53.06 115.01 53.944C115.478 54.8107 116.111 55.478 116.908 55.946C117.706 56.3967 118.607 56.622 119.612 56.622C120.583 56.622 121.467 56.388 122.264 55.92C123.079 55.452 123.72 54.7847 124.188 53.918C124.656 53.0513 124.89 52.046 124.89 50.902ZM132.685 38.76V58H130.865V38.76H132.685Z" fill="#6D6D6D"/>
<line x1="44.5" y1="9" x2="44.5" y2="61" stroke="#C4C4C4"/>
</svg>
